<svg width="56" height="40" viewBox="0 0 56 40" fill="none" xmlns="http://www.w3.org/2000/svg">
<path d="M48 20L18 37.3205L18 2.67949L48 20Z" fill="white"/>
<path d="M7.5 8.74167L27 20L7.5 31.2583L7.5 8.74167Z" fill="white" stroke="black"/>
<path d="M7.84091 37.1591C7.17424 37.1591 6.57386 37.0265 6.03977 36.7614C5.50568 36.4962 5.07765 36.1326 4.75568 35.6705C4.43371 35.2083 4.25758 34.6818 4.22727 34.0909H5.59091C5.64394 34.6174 5.88258 35.053 6.30682 35.3977C6.73485 35.7386 7.24621 35.9091 7.84091 35.9091C8.31818 35.9091 8.74242 35.7973 9.11364 35.5739C9.48864 35.3504 9.7822 35.0436 9.99432 34.6534C10.2102 34.2595 10.3182 33.8144 10.3182 33.3182C10.3182 32.8106 10.2064 32.358 9.98295 31.9602C9.76326 31.5587 9.46023 31.2424 9.07386 31.0114C8.6875 30.7803 8.24621 30.6629 7.75 30.6591C7.39394 30.6553 7.02841 30.7102 6.65341 30.8239C6.27841 30.9337 5.9697 31.0758 5.72727 31.25L4.40909 31.0909L5.11364 25.3636H11.1591V26.6136H6.29545L5.88636 30.0455H5.95455C6.19318 29.8561 6.49242 29.6989 6.85227 29.5739C7.21212 29.4489 7.58712 29.3864 7.97727 29.3864C8.68939 29.3864 9.32386 29.5568 9.88068 29.8977C10.4413 30.2348 10.8807 30.697 11.1989 31.2841C11.5208 31.8712 11.6818 32.5417 11.6818 33.2955C11.6818 34.0379 11.5152 34.7008 11.1818 35.2841C10.8523 35.8636 10.3977 36.322 9.81818 36.6591C9.23864 36.9924 8.57955 37.1591 7.84091 37.1591ZM24.6435 30.2273L23.4389 30.5682C23.3632 30.3674 23.2514 30.1723 23.1037 29.983C22.9598 29.7898 22.7628 29.6307 22.5128 29.5057C22.2628 29.3807 21.9427 29.3182 21.5526 29.3182C21.0185 29.3182 20.5734 29.4413 20.2173 29.6875C19.8651 29.9299 19.6889 30.2386 19.6889 30.6136C19.6889 30.947 19.8101 31.2102 20.0526 31.4034C20.295 31.5966 20.6738 31.7576 21.1889 31.8864L22.4844 32.2045C23.2647 32.3939 23.8461 32.6837 24.2287 33.0739C24.6113 33.4602 24.8026 33.9583 24.8026 34.5682C24.8026 35.0682 24.6586 35.5152 24.3707 35.9091C24.0866 36.303 23.6889 36.6136 23.1776 36.8409C22.6662 37.0682 22.0715 37.1818 21.3935 37.1818C20.5033 37.1818 19.7666 36.9886 19.1832 36.6023C18.5999 36.2159 18.2306 35.6515 18.0753 34.9091L19.348 34.5909C19.4692 35.0606 19.6984 35.4129 20.0355 35.6477C20.3764 35.8826 20.8215 36 21.3707 36C21.9957 36 22.492 35.8674 22.8594 35.6023C23.2306 35.3333 23.4162 35.0114 23.4162 34.6364C23.4162 34.3333 23.3101 34.0795 23.098 33.875C22.8859 33.6667 22.5601 33.5114 22.1207 33.4091L20.6662 33.0682C19.867 32.8788 19.2798 32.5852 18.9048 32.1875C18.5336 31.786 18.348 31.2841 18.348 30.6818C18.348 30.1894 18.4863 29.7538 18.7628 29.375C19.0431 28.9962 19.4238 28.6989 19.9048 28.483C20.3897 28.267 20.9389 28.1591 21.5526 28.1591C22.4162 28.1591 23.0942 28.3485 23.5866 28.7273C24.0829 29.1061 24.4351 29.6061 24.6435 30.2273ZM30.4801 37.1818C29.6392 37.1818 28.9138 36.9962 28.304 36.625C27.6979 36.25 27.2301 35.7273 26.9006 35.0568C26.5748 34.3826 26.4119 33.5985 26.4119 32.7045C26.4119 31.8106 26.5748 31.0227 26.9006 30.3409C27.2301 29.6553 27.6884 29.1212 28.2756 28.7386C28.8665 28.3523 29.5559 28.1591 30.3438 28.1591C30.7983 28.1591 31.2472 28.2348 31.6903 28.3864C32.1335 28.5379 32.5369 28.7841 32.9006 29.125C33.2642 29.4621 33.554 29.9091 33.7699 30.4659C33.9858 31.0227 34.0938 31.7083 34.0938 32.5227V33.0909H27.3665V31.9318H32.7301C32.7301 31.4394 32.6316 31 32.4347 30.6136C32.2415 30.2273 31.965 29.9223 31.6051 29.6989C31.2491 29.4754 30.8286 29.3636 30.3438 29.3636C29.8097 29.3636 29.3475 29.4962 28.9574 29.7614C28.571 30.0227 28.2737 30.3636 28.0653 30.7841C27.857 31.2045 27.7528 31.6553 27.7528 32.1364V32.9091C27.7528 33.5682 27.8665 34.1269 28.0938 34.5852C28.3248 35.0398 28.6449 35.3864 29.054 35.625C29.4631 35.8598 29.9384 35.9773 30.4801 35.9773C30.8324 35.9773 31.1506 35.928 31.4347 35.8295C31.7225 35.7273 31.9706 35.5758 32.179 35.375C32.3873 35.1705 32.5483 34.9167 32.6619 34.6136L33.9574 34.9773C33.821 35.4167 33.5919 35.803 33.2699 36.1364C32.9479 36.4659 32.5502 36.7235 32.0767 36.9091C31.6032 37.0909 31.071 37.1818 30.4801 37.1818ZM39.679 37.1818C38.8608 37.1818 38.1563 36.9886 37.5653 36.6023C36.9744 36.2159 36.5199 35.6837 36.2017 35.0057C35.8835 34.3277 35.7244 33.553 35.7244 32.6818C35.7244 31.7955 35.8873 31.0133 36.2131 30.3352C36.5426 29.6534 37.0009 29.1212 37.5881 28.7386C38.179 28.3523 38.8684 28.1591 39.6562 28.1591C40.2699 28.1591 40.8229 28.2727 41.3153 28.5C41.8078 28.7273 42.2112 29.0455 42.5256 29.4545C42.84 29.8636 43.035 30.3409 43.1108 30.8864H41.7699C41.6676 30.4886 41.4403 30.1364 41.0881 29.8295C40.7396 29.5189 40.2699 29.3636 39.679 29.3636C39.1563 29.3636 38.6979 29.5 38.304 29.7727C37.9138 30.0417 37.6089 30.4223 37.3892 30.9148C37.1733 31.4034 37.0653 31.9773 37.0653 32.6364C37.0653 33.3106 37.1714 33.8977 37.3835 34.3977C37.5994 34.8977 37.9025 35.286 38.2926 35.5625C38.6866 35.839 39.1487 35.9773 39.679 35.9773C40.0275 35.9773 40.3438 35.9167 40.6278 35.7955C40.9119 35.6742 41.1525 35.5 41.3494 35.2727C41.5464 35.0455 41.6866 34.7727 41.7699 34.4545H43.1108C43.035 34.9697 42.8475 35.4337 42.5483 35.8466C42.2528 36.2557 41.8608 36.5814 41.3722 36.8239C40.8873 37.0625 40.3229 37.1818 39.679 37.1818ZM46.0483 37.0909C45.768 37.0909 45.5275 36.9905 45.3267 36.7898C45.1259 36.589 45.0256 36.3485 45.0256 36.0682C45.0256 35.7879 45.1259 35.5473 45.3267 35.3466C45.5275 35.1458 45.768 35.0455 46.0483 35.0455C46.3286 35.0455 46.5691 35.1458 46.7699 35.3466C46.9706 35.5473 47.071 35.7879 47.071 36.0682C47.071 36.2538 47.0237 36.4242 46.929 36.5795C46.8381 36.7348 46.715 36.8598 46.5597 36.9545C46.4081 37.0455 46.2377 37.0909 46.0483 37.0909Z" fill="white"/>
<path d="M6.03977 36.7614L5.5951 37.6571L5.5951 37.6571L6.03977 36.7614ZM4.75568 35.6705L5.57618 35.0988L5.57618 35.0988L4.75568 35.6705ZM4.22727 34.0909V33.0909H3.17468L3.22859 34.1421L4.22727 34.0909ZM5.59091 34.0909L6.58588 33.9907L6.49525 33.0909H5.59091V34.0909ZM6.30682 35.3977L5.6762 36.1739L5.68381 36.1799L6.30682 35.3977ZM9.11364 35.5739L8.60169 34.7148L8.59786 34.7171L9.11364 35.5739ZM9.99432 34.6534L9.11739 34.1728L9.11577 34.1758L9.99432 34.6534ZM9.98295 31.9602L9.10564 32.4403L9.11116 32.4501L9.98295 31.9602ZM7.75 30.6591L7.73936 31.659L7.74237 31.6591L7.75 30.6591ZM6.65341 30.8239L6.93454 31.7836L6.94342 31.7809L6.65341 30.8239ZM5.72727 31.25L5.60745 32.2428L5.99441 32.2895L6.31091 32.062L5.72727 31.25ZM4.40909 31.0909L3.41657 30.9688L3.2942 31.9636L4.28927 32.0837L4.40909 31.0909ZM5.11364 25.3636V24.3636H4.22911L4.12112 25.2415L5.11364 25.3636ZM11.1591 25.3636H12.1591V24.3636H11.1591V25.3636ZM11.1591 26.6136V27.6136H12.1591V26.6136H11.1591ZM6.29545 26.6136V25.6136H5.40758L5.30248 26.4953L6.29545 26.6136ZM5.88636 30.0455L4.89339 29.9271L4.76008 31.0455H5.88636V30.0455ZM5.95455 30.0455V31.0455H6.30315L6.5762 30.8287L5.95455 30.0455ZM9.88068 29.8977L9.35851 30.7506L9.36533 30.7547L9.88068 29.8977ZM11.1989 31.2841L10.3197 31.7606L10.3221 31.7649L11.1989 31.2841ZM11.1818 35.2841L10.3136 34.788L10.3125 34.7898L11.1818 35.2841ZM9.81818 36.6591L10.3168 37.5259L10.321 37.5235L9.81818 36.6591ZM7.84091 36.1591C7.31013 36.1591 6.86476 36.0545 6.48444 35.8657L5.5951 37.6571C6.28297 37.9986 7.03836 38.1591 7.84091 38.1591V36.1591ZM6.48444 35.8657C6.09173 35.6707 5.79642 35.4149 5.57618 35.0988L3.93519 36.2421C4.35888 36.8502 4.91963 37.3217 5.5951 37.6571L6.48444 35.8657ZM5.57618 35.0988C5.36661 34.798 5.24719 34.4538 5.22596 34.0397L3.22859 34.1421C3.26796 34.9099 3.50081 35.6187 3.93519 36.2421L5.57618 35.0988ZM4.22727 35.0909H5.59091V33.0909H4.22727V35.0909ZM4.59594 34.1911C4.67661 34.9921 5.05304 35.6675 5.67623 36.1738L6.93741 34.6216C6.71212 34.4386 6.61127 34.2428 6.58588 33.9907L4.59594 34.1911ZM5.68381 36.1799C6.30461 36.6744 7.04084 36.9091 7.84091 36.9091V34.9091C7.45158 34.9091 7.16509 34.8029 6.92982 34.6155L5.68381 36.1799ZM7.84091 36.9091C8.48092 36.9091 9.08697 36.7572 9.62942 36.4306L8.59786 34.7171C8.39788 34.8375 8.15544 34.9091 7.84091 34.9091V36.9091ZM9.62558 36.4329C10.1576 36.1158 10.5765 35.6761 10.8729 35.1311L9.11577 34.1758C8.98785 34.411 8.8197 34.5849 8.60169 34.7148L9.62558 36.4329ZM10.8712 35.134C11.1761 34.5778 11.3182 33.9644 11.3182 33.3182H9.31818C9.31818 33.6643 9.24435 33.9411 9.11739 34.1728L10.8712 35.134ZM11.3182 33.3182C11.3182 32.6588 11.1715 32.034 10.8548 31.4704L9.11116 32.4501C9.24143 32.6819 9.31818 32.9625 9.31818 33.3182H11.3182ZM10.8602 31.4802C10.5565 30.9252 10.129 30.4772 9.58712 30.1531L8.56061 31.8696C8.79146 32.0077 8.96999 32.1922 9.10569 32.4402L10.8602 31.4802ZM9.58712 30.1531C9.03254 29.8215 8.41327 29.6641 7.75763 29.6591L7.74237 31.6591C8.07916 31.6616 8.34246 31.7391 8.56061 31.8696L9.58712 30.1531ZM7.76064 29.6591C7.29309 29.6542 6.82614 29.7266 6.3634 29.8668L6.94342 31.7809C7.23068 31.6938 7.49479 31.6564 7.73936 31.659L7.76064 29.6591ZM6.37229 29.8642C5.92046 29.9965 5.50124 30.181 5.14364 30.438L6.31091 32.062C6.43816 31.9706 6.63636 31.8709 6.93453 31.7835L6.37229 29.8642ZM5.84709 30.2572L4.52891 30.0981L4.28927 32.0837L5.60745 32.2428L5.84709 30.2572ZM5.40161 31.213L6.10615 25.4857L4.12112 25.2415L3.41657 30.9688L5.40161 31.213ZM5.11364 26.3636H11.1591V24.3636H5.11364V26.3636ZM10.1591 25.3636V26.6136H12.1591V25.3636H10.1591ZM11.1591 25.6136H6.29545V27.6136H11.1591V25.6136ZM5.30248 26.4953L4.89339 29.9271L6.87933 30.1638L7.28842 26.732L5.30248 26.4953ZM5.88636 31.0455H5.95455V29.0455H5.88636V31.0455ZM6.5762 30.8287C6.70786 30.7243 6.90129 30.6155 7.18041 30.5185L6.52414 28.6292C6.08356 28.7823 5.6785 28.9879 5.33289 29.2622L6.5762 30.8287ZM7.18041 30.5185C7.43218 30.431 7.69608 30.3864 7.97727 30.3864V28.3864C7.47816 28.3864 6.99206 28.4667 6.52414 28.6292L7.18041 30.5185ZM7.97727 30.3864C8.52241 30.3864 8.97301 30.5145 9.35853 30.7506L10.4028 29.0449C9.67472 28.5991 8.85637 28.3864 7.97727 28.3864V30.3864ZM9.36533 30.7547C9.76953 30.9978 10.0847 31.3271 10.3197 31.7606L12.0781 30.8076C11.6766 30.0669 11.113 29.4719 10.396 29.0407L9.36533 30.7547ZM10.3221 31.7649C10.5535 32.1869 10.6818 32.6883 10.6818 33.2955H12.6818C12.6818 32.3951 12.4882 31.5555 12.0757 30.8033L10.3221 31.7649ZM10.6818 33.2955C10.6818 33.8826 10.5517 34.3712 10.3136 34.788L12.0501 35.7802C12.4786 35.0303 12.6818 34.1932 12.6818 33.2955H10.6818ZM10.3125 34.7898C10.0708 35.2149 9.74312 35.5459 9.31537 35.7947L10.321 37.5235C11.0523 37.0981 11.6337 36.5124 12.0511 35.7784L10.3125 34.7898ZM9.3196 35.7922C8.90725 36.0294 8.42337 36.1591 7.84091 36.1591V38.1591C8.73572 38.1591 9.57002 37.9554 10.3168 37.5259L9.3196 35.7922ZM24.6435 30.2273L24.9158 31.1895L25.9251 30.9038L25.5916 29.9093L24.6435 30.2273ZM23.4389 30.5682L22.5033 30.9212L22.8276 31.7805L23.7112 31.5304L23.4389 30.5682ZM23.1037 29.983L22.3018 30.5804L22.3084 30.5893L22.3152 30.598L23.1037 29.983ZM22.5128 29.5057L22.96 28.6113L22.96 28.6113L22.5128 29.5057ZM20.2173 29.6875L20.7842 30.5113L20.7861 30.51L20.2173 29.6875ZM20.0526 31.4034L19.4294 32.1855L19.4294 32.1855L20.0526 31.4034ZM21.1889 31.8864L20.9464 32.8565L20.9504 32.8575L21.1889 31.8864ZM22.4844 32.2045L22.2458 33.1757L22.2485 33.1763L22.4844 32.2045ZM24.2287 33.0739L23.5147 33.774L23.5181 33.7775L24.2287 33.0739ZM24.3707 35.9091L23.5633 35.3191L23.5596 35.3242L24.3707 35.9091ZM19.1832 36.6023L19.7354 35.7686L19.7354 35.7686L19.1832 36.6023ZM18.0753 34.9091L17.8327 33.9389L16.8995 34.1723L17.0965 35.1138L18.0753 34.9091ZM19.348 34.5909L20.3163 34.341L20.0683 33.3801L19.1055 33.6208L19.348 34.5909ZM20.0355 35.6477L19.4639 36.4683L19.4682 36.4712L20.0355 35.6477ZM22.8594 35.6023L23.4446 36.4132L23.4461 36.4121L22.8594 35.6023ZM23.098 33.875L22.3973 34.5885L22.4039 34.5948L23.098 33.875ZM22.1207 33.4091L21.8925 34.3827L21.894 34.3831L22.1207 33.4091ZM20.6662 33.0682L20.4356 34.0412L20.438 34.0418L20.6662 33.0682ZM18.9048 32.1875L18.1705 32.8664L18.1772 32.8735L18.9048 32.1875ZM18.7628 29.375L17.9589 28.7801L17.9551 28.7854L18.7628 29.375ZM19.9048 28.483L19.498 27.5694L19.4954 27.5706L19.9048 28.483ZM23.5866 28.7273L22.9769 29.5199L22.9799 29.5221L23.5866 28.7273ZM24.3711 29.2651L23.1666 29.606L23.7112 31.5304L24.9158 31.1895L24.3711 29.2651ZM24.3745 30.2151C24.2592 29.9096 24.0946 29.6274 23.8922 29.3679L22.3152 30.598C22.4083 30.7173 22.4671 30.8252 22.5033 30.9212L24.3745 30.2151ZM23.9056 29.3855C23.6543 29.0483 23.3274 28.795 22.96 28.6113L22.0656 30.4001C22.1982 30.4664 22.2652 30.5312 22.3018 30.5804L23.9056 29.3855ZM22.96 28.6113C22.5273 28.3949 22.0402 28.3182 21.5526 28.3182V30.3182C21.8453 30.3182 21.9982 30.3664 22.0656 30.4001L22.96 28.6113ZM21.5526 28.3182C20.8632 28.3182 20.2073 28.4786 19.6486 28.865L20.7861 30.51C20.9395 30.4039 21.1737 30.3182 21.5526 30.3182V28.3182ZM19.6504 28.8637C19.0712 29.2623 18.6889 29.8593 18.6889 30.6136H20.6889C20.6889 30.5988 20.6906 30.5934 20.6903 30.5943C20.69 30.5955 20.6893 30.5969 20.6896 30.5964C20.6901 30.5956 20.6945 30.5878 20.708 30.5738C20.7218 30.5594 20.7456 30.5379 20.7842 30.5113L19.6504 28.8637ZM18.6889 30.6136C18.6889 31.2251 18.929 31.7867 19.4294 32.1855L20.6758 30.6213C20.6703 30.617 20.6714 30.617 20.6756 30.6223C20.6776 30.6248 20.6799 30.6279 20.6822 30.6317C20.6845 30.6355 20.6865 30.6392 20.6882 30.6429C20.6917 30.6505 20.6922 30.6542 20.6916 30.6514C20.691 30.6482 20.6889 30.6364 20.6889 30.6136H18.6889ZM19.4294 32.1855C19.8366 32.51 20.3777 32.7143 20.9464 32.8565L21.4315 30.9162C20.9698 30.8008 20.7534 30.6832 20.6758 30.6213L19.4294 32.1855ZM20.9504 32.8575L22.2459 33.1757L22.7229 31.2334L21.4274 30.9152L20.9504 32.8575ZM22.2485 33.1763C22.9273 33.3411 23.3107 33.566 23.5147 33.774L24.9427 32.3737C24.3816 31.8015 23.6021 31.4468 22.7202 31.2328L22.2485 33.1763ZM23.5181 33.7775C23.6921 33.9531 23.8026 34.1869 23.8026 34.5682H25.8026C25.8026 33.7298 25.5305 32.9673 24.9393 32.3702L23.5181 33.7775ZM23.8026 34.5682C23.8026 34.8617 23.7228 35.1009 23.5633 35.3191L25.1781 36.4991C25.5944 35.9294 25.8026 35.2747 25.8026 34.5682H23.8026ZM23.5596 35.3242C23.3939 35.5539 23.146 35.7606 22.7714 35.9271L23.5837 37.7547C24.2318 37.4667 24.7793 37.0521 25.1818 36.494L23.5596 35.3242ZM22.7714 35.9271C22.412 36.0868 21.9606 36.1818 21.3935 36.1818V38.1818C22.1824 38.1818 22.9204 38.0495 23.5837 37.7547L22.7714 35.9271ZM21.3935 36.1818C20.6465 36.1818 20.1157 36.0204 19.7354 35.7686L18.631 37.436C19.4175 37.9569 20.3601 38.1818 21.3935 38.1818V36.1818ZM19.7354 35.7686C19.391 35.5405 19.1605 35.213 19.0541 34.7043L17.0965 35.1138C17.3007 36.09 17.8088 36.8914 18.631 37.436L19.7354 35.7686ZM18.3178 35.8792L19.5905 35.5611L19.1055 33.6208L17.8327 33.9389L18.3178 35.8792ZM18.3797 34.8408C18.5493 35.498 18.8963 36.0728 19.4639 36.4683L20.6071 34.8272C20.5005 34.7529 20.3891 34.6232 20.3163 34.341L18.3797 34.8408ZM19.4682 36.4712C20.0226 36.8532 20.6841 37 21.3707 37V35C20.9589 35 20.7302 34.912 20.6028 34.8242L19.4682 36.4712ZM21.3707 37C22.128 37 22.853 36.8401 23.4446 36.4132L22.2742 34.7914C22.1309 34.8948 21.8635 35 21.3707 35V37ZM23.4461 36.4121C24.012 36.0021 24.4162 35.4045 24.4162 34.6364H22.4162C22.4162 34.6419 22.4159 34.6454 22.4156 34.6473C22.4154 34.6491 22.4152 34.65 22.4151 34.6503C22.415 34.6507 22.4148 34.6512 22.4144 34.6524C22.4139 34.6535 22.4128 34.6559 22.4106 34.6597C22.4026 34.6737 22.3702 34.7218 22.2727 34.7925L23.4461 36.4121ZM24.4162 34.6364C24.4162 34.0705 24.2059 33.5541 23.7921 33.1552L22.4039 34.5948C22.4123 34.603 22.4155 34.6075 22.4158 34.6079C22.416 34.6082 22.415 34.6068 22.414 34.6043C22.413 34.602 22.4133 34.6018 22.414 34.6054C22.4147 34.6093 22.4162 34.6191 22.4162 34.6364H24.4162ZM23.7987 33.1616C23.4044 32.7743 22.88 32.5591 22.3474 32.4351L21.894 34.3831C22.2402 34.4636 22.3674 34.559 22.3973 34.5884L23.7987 33.1616ZM22.3489 32.4355L20.8944 32.0946L20.438 34.0418L21.8925 34.3827L22.3489 32.4355ZM20.8968 32.0951C20.1982 31.9296 19.8218 31.7023 19.6324 31.5015L18.1772 32.8735C18.7379 33.4681 19.5357 33.828 20.4356 34.0412L20.8968 32.0951ZM19.6391 31.5086C19.4566 31.3113 19.348 31.0601 19.348 30.6818H17.348C17.348 31.5081 17.6106 32.2607 18.1706 32.8664L19.6391 31.5086ZM19.348 30.6818C19.348 30.3901 19.4254 30.1633 19.5705 29.9646L17.9551 28.7854C17.5471 29.3443 17.348 29.9887 17.348 30.6818H19.348ZM19.5666 29.9698C19.7332 29.7448 19.9708 29.5495 20.3143 29.3953L19.4954 27.5706C18.8768 27.8483 18.353 28.2476 17.9589 28.7802L19.5666 29.9698ZM20.3116 29.3965C20.65 29.2458 21.0573 29.1591 21.5526 29.1591V27.1591C20.8205 27.1591 20.1294 27.2883 19.498 27.5694L20.3116 29.3965ZM21.5526 29.1591C22.2801 29.1591 22.7162 29.3193 22.9769 29.5199L24.1964 27.9346C23.4723 27.3777 22.5523 27.1591 21.5526 27.1591V29.1591ZM22.9799 29.5221C23.3091 29.7734 23.5473 30.1036 23.6954 30.5452L25.5916 29.9093C25.323 29.1085 24.8566 28.4387 24.1934 27.9324L22.9799 29.5221ZM28.304 36.625L27.7778 37.4754L27.784 37.4792L28.304 36.625ZM26.9006 35.0568L26.0001 35.4919L26.0031 35.4979L26.9006 35.0568ZM26.9006 30.3409L25.9993 29.9077L25.9983 29.9098L26.9006 30.3409ZM28.2756 28.7386L28.8215 29.5765L28.8228 29.5756L28.2756 28.7386ZM31.6903 28.3864L32.0138 27.4401L32.0138 27.4401L31.6903 28.3864ZM32.9006 29.125L32.2166 29.8545L32.2207 29.8583L32.9006 29.125ZM33.7699 30.4659L34.7022 30.1044L34.7022 30.1044L33.7699 30.4659ZM34.0938 33.0909V34.0909H35.0938V33.0909H34.0938ZM27.3665 33.0909H26.3665V34.0909H27.3665V33.0909ZM27.3665 31.9318V30.9318H26.3665V31.9318H27.3665ZM32.7301 31.9318V32.9318H33.7301V31.9318H32.7301ZM32.4347 30.6136L31.5402 31.0609L31.5438 31.0678L32.4347 30.6136ZM31.6051 29.6989L31.0735 30.5459L31.0775 30.5484L31.6051 29.6989ZM28.9574 29.7614L29.5177 30.5896L29.5195 30.5884L28.9574 29.7614ZM28.0653 30.7841L27.1693 30.3401L27.1693 30.3401L28.0653 30.7841ZM28.0938 34.5852L27.1978 35.0295L27.2023 35.0384L28.0938 34.5852ZM29.054 35.625L28.5501 36.4888L28.5561 36.4923L29.054 35.625ZM31.4347 35.8295L31.7622 36.7744L31.7694 36.7718L31.4347 35.8295ZM32.179 35.375L32.8729 36.0951L32.8796 36.0886L32.179 35.375ZM32.6619 34.6136L32.9322 33.6508L32.048 33.4027L31.7256 34.2625L32.6619 34.6136ZM33.9574 34.9773L34.9125 35.2737L35.217 34.2922L34.2276 34.0145L33.9574 34.9773ZM33.2699 36.1364L33.9852 36.8352L33.9891 36.8311L33.2699 36.1364ZM32.0767 36.9091L32.4352 37.8427L32.4417 37.8401L32.0767 36.9091ZM30.4801 36.1818C29.7896 36.1818 29.2511 36.0308 28.8239 35.7708L27.784 37.4792C28.5765 37.9616 29.4888 38.1818 30.4801 38.1818V36.1818ZM28.8301 35.7746C28.3917 35.5033 28.0489 35.1261 27.798 34.6157L26.0031 35.4979C26.4113 36.3284 27.0041 36.9967 27.7778 37.4754L28.8301 35.7746ZM27.801 34.6218C27.5523 34.107 27.4119 33.4767 27.4119 32.7045H25.4119C25.4119 33.7203 25.5974 34.6581 26.0002 35.4919L27.801 34.6218ZM27.4119 32.7045C27.4119 31.9327 27.5522 31.2968 27.8029 30.772L25.9983 29.9098C25.5975 30.7487 25.4119 31.6885 25.4119 32.7045H27.4119ZM27.8019 30.7741C28.0592 30.2387 28.4006 29.8507 28.8215 29.5765L27.7296 27.9008C26.9763 28.3917 26.401 29.0719 25.9993 29.9077L27.8019 30.7741ZM28.8228 29.5756C29.2325 29.3077 29.7269 29.1591 30.3438 29.1591V27.1591C29.3848 27.1591 28.5004 27.3968 27.7283 27.9017L28.8228 29.5756ZM30.3438 29.1591C30.6849 29.1591 31.0246 29.2156 31.3668 29.3326L32.0138 27.4401C31.4697 27.2541 30.9117 27.1591 30.3438 27.1591V29.1591ZM31.3668 29.3326C31.6674 29.4353 31.9497 29.6043 32.2166 29.8545L33.5845 28.3955C33.1242 27.9639 32.5997 27.6404 32.0138 27.4401L31.3668 29.3326ZM32.2207 29.8583C32.4526 30.0733 32.6654 30.3836 32.8375 30.8274L34.7022 30.1044C34.4425 29.4346 34.0758 28.8509 33.5804 28.3917L32.2207 29.8583ZM32.8375 30.8274C32.9957 31.2354 33.0938 31.79 33.0938 32.5227H35.0938C35.0938 31.6267 34.9759 30.8101 34.7022 30.1044L32.8375 30.8274ZM33.0938 32.5227V33.0909H35.0938V32.5227H33.0938ZM34.0938 32.0909H27.3665V34.0909H34.0938V32.0909ZM28.3665 33.0909V31.9318H26.3665V33.0909H28.3665ZM27.3665 32.9318H32.7301V30.9318H27.3665V32.9318ZM33.7301 31.9318C33.7301 31.3031 33.6034 30.7045 33.3256 30.1594L31.5438 31.0678C31.6598 31.2955 31.7301 31.5757 31.7301 31.9318H33.7301ZM33.3291 30.1664C33.0549 29.6181 32.6529 29.1724 32.1327 28.8494L31.0775 30.5484C31.277 30.6722 31.428 30.8365 31.5402 31.0608L33.3291 30.1664ZM32.1367 28.8519C31.5982 28.5138 30.9872 28.3636 30.3438 28.3636V30.3636C30.67 30.3636 30.9 30.4369 31.0735 30.5458L32.1367 28.8519ZM30.3438 28.3636C29.6366 28.3636 28.9726 28.542 28.3953 28.9343L29.5195 30.5884C29.7225 30.4505 29.9827 30.3636 30.3438 30.3636V28.3636ZM28.3971 28.9331C27.8666 29.292 27.4539 29.7656 27.1693 30.3401L28.9614 31.2281C29.0934 30.9616 29.2755 30.7535 29.5177 30.5896L28.3971 28.9331ZM27.1693 30.3401C26.8908 30.9021 26.7528 31.5053 26.7528 32.1364H28.7528C28.7528 31.8053 28.8232 31.507 28.9614 31.2281L27.1693 30.3401ZM26.7528 32.1364V32.9091H28.7528V32.1364H26.7528ZM26.7528 32.9091C26.7528 33.6793 26.8853 34.3991 27.1978 35.0295L28.9897 34.141C28.8477 33.8547 28.7528 33.457 28.7528 32.9091H26.7528ZM27.2023 35.0384C27.5135 35.6505 27.9623 36.1459 28.5501 36.4888L29.5578 34.7612C29.3275 34.6269 29.1362 34.4291 28.9852 34.1321L27.2023 35.0384ZM28.5561 36.4923C29.138 36.8263 29.79 36.9773 30.4801 36.9773V34.9773C30.0869 34.9773 29.7882 34.8934 29.5518 34.7577L28.5561 36.4923ZM30.4801 36.9773C30.9252 36.9773 31.3564 36.915 31.7622 36.7744L31.1071 34.8847C30.9447 34.941 30.7396 34.9773 30.4801 34.9773V36.9773ZM31.7694 36.7718C32.1838 36.6246 32.5563 36.4001 32.8729 36.0951L31.4851 34.6549C31.385 34.7514 31.2613 34.8299 31.0999 34.8872L31.7694 36.7718ZM32.8796 36.0886C33.2028 35.7712 33.439 35.3894 33.5983 34.9648L31.7256 34.2625C31.6576 34.4439 31.5718 34.5697 31.4784 34.6614L32.8796 36.0886ZM32.3917 35.5764L33.6871 35.9401L34.2276 34.0145L32.9322 33.6508L32.3917 35.5764ZM33.0023 34.6809C32.9127 34.9697 32.7647 35.2199 32.5506 35.4416L33.9891 36.8311C34.419 36.3861 34.7294 35.8636 34.9125 35.2737L33.0023 34.6809ZM32.5546 35.4375C32.3415 35.6556 32.0671 35.8388 31.7117 35.9781L32.4417 37.8401C33.0333 37.6082 33.5543 37.2762 33.9852 36.8352L32.5546 35.4375ZM31.7182 35.9756C31.3764 36.1068 30.9684 36.1818 30.4801 36.1818V38.1818C31.1737 38.1818 31.8301 38.075 32.4352 37.8426L31.7182 35.9756ZM37.5653 36.6023L37.0181 37.4392L37.0181 37.4392L37.5653 36.6023ZM36.2131 30.3352L35.3127 29.9001L35.3117 29.9022L36.2131 30.3352ZM37.5881 28.7386L38.134 29.5765L38.1353 29.5756L37.5881 28.7386ZM42.5256 29.4545L43.3185 28.8452L43.3185 28.8452L42.5256 29.4545ZM43.1108 30.8864V31.8864H44.2593L44.1013 30.7488L43.1108 30.8864ZM41.7699 30.8864L40.8014 31.1354L40.9945 31.8864H41.7699V30.8864ZM41.0881 29.8295L40.4227 30.5761L40.4313 30.5836L41.0881 29.8295ZM38.304 29.7727L38.8715 30.5961L38.8732 30.5949L38.304 29.7727ZM37.3892 30.9148L36.476 30.5073L36.4745 30.5106L37.3892 30.9148ZM37.3835 34.3977L36.4629 34.7883L36.4655 34.7942L37.3835 34.3977ZM38.2926 35.5625L37.7144 36.3784L37.7181 36.381L38.2926 35.5625ZM40.6278 35.7955L40.2354 34.8757L40.2354 34.8757L40.6278 35.7955ZM41.3494 35.2727L42.1051 35.9277L42.1051 35.9277L41.3494 35.2727ZM41.7699 34.4545V33.4545H40.9981L40.8025 34.2012L41.7699 34.4545ZM43.1108 34.4545L44.1002 34.6L44.2686 33.4545H43.1108V34.4545ZM42.5483 35.8466L41.7386 35.2597L41.7376 35.2611L42.5483 35.8466ZM41.3722 36.8239L41.8138 37.7211L41.8166 37.7197L41.3722 36.8239ZM39.679 36.1818C39.0236 36.1818 38.5162 36.0292 38.1126 35.7653L37.0181 37.4392C37.7963 37.9481 38.698 38.1818 39.679 38.1818V36.1818ZM38.1126 35.7653C37.6865 35.4867 37.3514 35.1016 37.107 34.5809L35.2964 35.4305C35.6884 36.2658 36.2623 36.9451 37.0181 37.4392L38.1126 35.7653ZM37.107 34.5809C36.8606 34.0558 36.7244 33.43 36.7244 32.6818H34.7244C34.7244 33.676 34.9065 34.5995 35.2964 35.4305L37.107 34.5809ZM36.7244 32.6818C36.7244 31.9188 36.8642 31.2891 37.1144 30.7683L35.3117 29.9022C34.9104 30.7374 34.7244 31.6721 34.7244 32.6818H36.7244ZM37.1134 30.7704C37.3703 30.2389 37.7118 29.8516 38.134 29.5765L37.0421 27.9008C36.2901 28.3908 35.7149 29.068 35.3127 29.9001L37.1134 30.7704ZM38.1353 29.5756C38.545 29.3077 39.0394 29.1591 39.6562 29.1591V27.1591C38.6973 27.1591 37.8129 27.3968 37.0408 27.9017L38.1353 29.5756ZM39.6562 29.1591C40.1442 29.1591 40.5515 29.2488 40.8963 29.408L41.7344 27.592C41.0943 27.2966 40.3955 27.1591 39.6562 27.1591V29.1591ZM40.8963 29.408C41.2495 29.571 41.522 29.7897 41.7327 30.0639L43.3185 28.8452C42.9004 28.3012 42.366 27.8836 41.7344 27.592L40.8963 29.408ZM41.7327 30.0639C41.9343 30.3262 42.0667 30.6382 42.1203 31.0239L44.1013 30.7488C44.0033 30.0436 43.7456 29.401 43.3185 28.8452L41.7327 30.0639ZM43.1108 29.8864H41.7699V31.8864H43.1108V29.8864ZM42.7384 30.6373C42.579 30.0174 42.228 29.4963 41.7448 29.0755L40.4313 30.5836C40.6527 30.7764 40.7563 30.9599 40.8014 31.1354L42.7384 30.6373ZM41.7534 29.083C41.177 28.5693 40.4478 28.3636 39.679 28.3636V30.3636C40.092 30.3636 40.3022 30.4686 40.4227 30.5761L41.7534 29.083ZM39.679 28.3636C38.9722 28.3636 38.3112 28.5515 37.7348 28.9505L38.8732 30.5949C39.0846 30.4485 39.3403 30.3636 39.679 30.3636V28.3636ZM37.7364 28.9494C37.1751 29.3364 36.76 29.8708 36.476 30.5073L38.3024 31.3222C38.4578 30.9739 38.6526 30.747 38.8715 30.5961L37.7364 28.9494ZM36.4745 30.5106C36.1908 31.1526 36.0653 31.8698 36.0653 32.6364H38.0653C38.0653 32.0848 38.1558 31.6542 38.3039 31.3189L36.4745 30.5106ZM36.0653 32.6364C36.0653 33.4134 36.1874 34.1388 36.4629 34.7883L38.3041 34.0072C38.1554 33.6567 38.0653 33.2078 38.0653 32.6364H36.0653ZM36.4655 34.7942C36.7437 35.4386 37.1547 35.9817 37.7144 36.3784L38.8709 34.7466C38.6502 34.5902 38.4551 34.3569 38.3016 34.0013L36.4655 34.7942ZM37.7181 36.381C38.2974 36.7876 38.965 36.9773 39.679 36.9773V34.9773C39.3324 34.9773 39.0757 34.8904 38.8671 34.744L37.7181 36.381ZM39.679 36.9773C40.1451 36.9773 40.5972 36.8958 41.0203 36.7152L40.2354 34.8757C40.0903 34.9376 39.9098 34.9773 39.679 34.9773V36.9773ZM41.0203 36.7152C41.4401 36.5361 41.806 36.2728 42.1051 35.9277L40.5937 34.6178C40.4989 34.7272 40.3838 34.8124 40.2354 34.8757L41.0203 36.7152ZM42.1051 35.9277C42.4116 35.574 42.6188 35.1603 42.7373 34.7079L40.8025 34.2012C40.7543 34.3852 40.6812 34.5169 40.5937 34.6178L42.1051 35.9277ZM41.7699 35.4545H43.1108V33.4545H41.7699V35.4545ZM42.1214 34.3091C42.0686 34.6683 41.9412 34.9802 41.7386 35.2597L43.358 36.4334C43.7539 35.8872 44.0015 35.2711 44.1002 34.6L42.1214 34.3091ZM41.7376 35.2611C41.5448 35.5281 41.283 35.7518 40.9277 35.9281L41.8166 37.7197C42.4386 37.4111 42.9609 36.9833 43.359 36.4321L41.7376 35.2611ZM40.9306 35.9267C40.607 36.0859 40.1989 36.1818 39.679 36.1818V38.1818C40.447 38.1818 41.1676 38.0391 41.8138 37.7211L40.9306 35.9267ZM45.3267 36.7898L46.0338 36.0827L46.0338 36.0827L45.3267 36.7898ZM46.7699 35.3466L47.477 34.6395L47.477 34.6395L46.7699 35.3466ZM46.929 36.5795L46.0752 36.0589L46.0705 36.0666L46.066 36.0744L46.929 36.5795ZM46.5597 36.9545L47.0742 37.8121L47.0803 37.8083L46.5597 36.9545ZM46.0483 36.0909C46.0381 36.0909 46.0341 36.09 46.0348 36.0902C46.0356 36.0903 46.0387 36.0911 46.0428 36.0928C46.0469 36.0945 46.0489 36.0959 46.0484 36.0955C46.0478 36.0951 46.0427 36.0916 46.0338 36.0827L44.6196 37.4969C45.0052 37.8825 45.499 38.0909 46.0483 38.0909V36.0909ZM46.0338 36.0827C46.0249 36.0737 46.0214 36.0687 46.021 36.0681C46.0206 36.0676 46.022 36.0696 46.0237 36.0737C46.0254 36.0777 46.0262 36.0809 46.0263 36.0817C46.0265 36.0824 46.0256 36.0783 46.0256 36.0682H44.0256C44.0256 36.6175 44.234 37.1113 44.6196 37.4969L46.0338 36.0827ZM46.0256 36.0682C46.0256 36.058 46.0265 36.054 46.0263 36.0547C46.0262 36.0555 46.0254 36.0586 46.0237 36.0627C46.022 36.0667 46.0206 36.0688 46.021 36.0683C46.0214 36.0676 46.0249 36.0626 46.0338 36.0537L44.6196 34.6395C44.234 35.0251 44.0256 35.5188 44.0256 36.0682H46.0256ZM46.0338 36.0537C46.0427 36.0448 46.0478 36.0413 46.0484 36.0408C46.0489 36.0405 46.0469 36.0419 46.0428 36.0436C46.0387 36.0453 46.0356 36.046 46.0348 36.0462C46.0341 36.0463 46.0381 36.0455 46.0483 36.0455V34.0455C45.499 34.0455 45.0052 34.2539 44.6196 34.6395L46.0338 36.0537ZM46.0483 36.0455C46.0584 36.0455 46.0625 36.0463 46.0618 36.0462C46.061 36.046 46.0579 36.0453 46.0538 36.0436C46.0497 36.0419 46.0477 36.0405 46.0482 36.0408C46.0488 36.0413 46.0539 36.0448 46.0628 36.0537L47.477 34.6395C47.0914 34.2539 46.5976 34.0455 46.0483 34.0455V36.0455ZM46.0628 36.0537C46.0717 36.0626 46.0752 36.0676 46.0756 36.0683C46.076 36.0688 46.0746 36.0667 46.0729 36.0627C46.0712 36.0586 46.0704 36.0555 46.0703 36.0547C46.0701 36.054 46.071 36.058 46.071 36.0682H48.071C48.071 35.5188 47.8626 35.0251 47.477 34.6395L46.0628 36.0537ZM46.071 36.0682C46.071 36.072 46.0708 36.0733 46.0709 36.0727C46.071 36.0721 46.0713 36.0702 46.072 36.0676C46.0727 36.0649 46.0736 36.0625 46.0745 36.0605C46.0753 36.0586 46.0757 36.058 46.0752 36.0589L47.7828 37.1002C47.9751 36.7847 48.071 36.4335 48.071 36.0682H46.071ZM46.066 36.0744C46.0595 36.0853 46.0547 36.0912 46.0391 36.1007L47.0803 37.8083C47.3752 37.6285 47.6166 37.3844 47.792 37.0847L46.066 36.0744ZM46.0452 36.0971C46.0468 36.0961 46.0493 36.0947 46.0525 36.0934C46.0556 36.0921 46.0584 36.0911 46.0605 36.0906C46.0653 36.0893 46.0624 36.0909 46.0483 36.0909V38.0909C46.4054 38.0909 46.756 38.0029 47.0742 37.812L46.0452 36.0971Z" fill="black"/>
</svg>
